<svg width="250" height="250" viewBox="0 0 250 250" fill="none" xmlns="http://www.w3.org/2000/svg">
<rect width="250" height="250" fill="#E5E5E5"/>
<circle cx="125" cy="125" r="125" fill="#F0F0F0"/>
<path d="M121.883 189.163C77.8834 189.163 46.8834 187.83 36.8834 187.163V185.163L53.8834 183.163C46.6834 179.963 42.5501 172.497 41.3834 169.164L36.8834 169.664C35.2834 166.464 36.2168 164.33 36.8834 163.664H40.8834C40.0834 153.664 46.2168 145.164 49.3834 142.163C55.7834 137.363 64.3834 136.83 67.8834 137.164C71.8834 137.564 74.2168 138.33 74.8834 138.664L51.3834 111.664L148.383 91.6635V89.6635L45.3834 110.164C42.5834 108.564 43.5501 105.83 44.3834 104.664L56.8834 102.164L58.2702 94.3054C58.2521 94.0736 58.2863 93.8578 58.3834 93.6635L58.2702 94.3054C58.4011 95.9826 61.2727 98.4921 62.8834 99.6635V93.6635C63.2834 96.8635 66.3834 98.9968 67.8834 99.6635L78.3834 98.1635L75.8834 93.6635L80.3834 96.6635V89.6635C80.3834 92.0635 82.3834 94.6635 83.3834 95.6635L84.6827 90.4666C84.6761 90.1577 84.7367 89.8837 84.8834 89.6635L84.6827 90.4666C84.721 92.2624 87.0302 95.2369 87.8834 95.6635C88.6834 96.0635 94.8834 94.4968 97.8834 93.6635V91.6635C99.8834 93.2635 101.717 92.3302 102.383 91.6635L99.8834 88.1635C101.483 89.3635 105.55 89.6635 107.383 89.6635C110.583 89.2635 114.383 82.1635 115.883 78.6635C121.483 83.4635 131.883 85.9968 136.383 86.6635C141.983 86.6635 143.383 85.3302 143.383 84.6635C143.826 82.8935 144.474 79.9487 144.626 78.1684C144.225 77.2967 144.051 76.6635 144.383 76.6635C144.652 76.6635 144.703 77.2665 144.626 78.1684C145.19 79.3944 146.202 81.092 146.883 82.1635L148.383 74.1635C149.05 76.8302 150.583 82.1635 151.383 82.1635C152.183 82.1635 153.05 78.4968 153.383 76.6635V84.6635L166.883 82.1635C167.683 83.7635 168.883 77.4968 169.383 74.1635C170.183 76.5635 171.383 78.1635 171.883 78.6635C172.55 75.6635 173.883 69.9635 173.883 71.1635C173.883 72.6635 173.883 75.6635 174.883 76.6635C175.683 77.4635 177.217 74.3302 177.883 72.6635V80.1635C179.883 78.1635 185.083 74.6635 189.883 76.6635C194.683 78.6635 191.55 81.8302 189.383 83.1635L180.883 123.663V127.663L209.383 74.1635C212.05 73.1635 218.283 71.1635 221.883 71.1635C225.483 71.1635 225.05 74.1635 224.383 75.6635L213.383 78.6635L183.883 135.163C189.883 133.563 190.05 137.497 189.383 139.663L176.383 142.163V171.663C173.183 178.863 164.05 177.663 159.883 176.163L155.883 171.663L133.883 150.663L89.3834 159.663C90.5834 171.663 82.5501 179.33 78.3834 181.663V183.163L133.883 181.663C183.483 182.463 210.217 184.33 217.383 185.163V187.163C168.183 189.963 133.217 189.663 121.883 189.163Z" fill="#4F4543"/>
<path d="M135.5 117.5C139.9 125.9 135.333 130.333 132.5 131.5L124 120L129 134C119.8 136.8 114.5 128.167 113 123.5C113 114.7 115.667 108.833 117 107C128.6 108.6 134.167 114.667 135.5 117.5Z" fill="#9CC112"/>
<path d="M109.5 62.5C113.9 70.9 109.333 75.3333 106.5 76.5L98 65L103 79C93.8 81.8 88.5 73.1667 87 68.5C87 59.7 89.6667 53.8333 91 52C102.6 53.6 108.167 59.6667 109.5 62.5Z" fill="#99BC0B"/>
<path d="M133.091 70.2682C130.183 77.3056 125.1 76.7765 122.922 75.6322L125.627 64.4724L119.579 74.7642C113.115 70.5397 115.703 62.8277 117.804 59.4998C123.225 54.9666 128.212 53.587 130.028 53.4639C135.019 61.4333 134.149 67.9874 133.091 70.2682Z" fill="#9BC022"/>
<path d="M118.714 49.5033C119.235 54.9755 115.834 56.3791 114.068 56.3969L112.033 48.3718L111.657 56.9892C106.139 56.5148 105.188 50.7231 105.403 47.8865C107.316 43.147 110.015 40.562 111.126 39.8619C116.967 43.2232 118.618 47.6901 118.714 49.5033Z" fill="#98C00B"/>
<circle cx="64.5" cy="161.5" r="10.5" fill="#C4C4C4"/>
<path d="M46.0917 162C45.4251 156.667 48.0917 145 64.0917 141" stroke="#D3CBC9"/>
<path d="M65.9967 180.924C61.106 181.688 50.2597 179.955 46 166.912" stroke="#D3CBC9"/>
<path d="M60.3182 160.683L54.5682 161.716H53L54.5682 167.394L61.3636 165.845C65.9636 170.388 69.2045 166.706 70.25 164.297L76 163.264L74.9545 157.586L68.1591 158.619C62.7227 154.902 60.6667 158.446 60.3182 160.683Z" fill="#4F4543"/>
</svg>
